<mxfile host="app.diagrams.net" modified="2022-08-29T13:04:38.362Z" agent="5.0 (Macintosh; Intel Mac OS X 10_15_7) AppleWebKit/537.36 (KHTML, like Gecko) Chrome/104.0.0.0 Safari/537.36" etag="OFBFrvWNGyLsOfIqvLVN" version="20.2.4" type="github">
  <diagram id="GYsjJAC2UhuSZWmslm0o" name="第 1 页">
    <mxGraphModel dx="2025" dy="1129" grid="1" gridSize="10" guides="1" tooltips="1" connect="1" arrows="1" fold="1" page="1" pageScale="1" pageWidth="827" pageHeight="1169" math="0" shadow="0">
      <root>
        <mxCell id="0" />
        <mxCell id="1" parent="0" />
      </root>
    </mxGraphModel>
  </diagram>
</mxfile>
